<?xml version="1.0"?>
<svg width="115" height="115" xmlns="http://www.w3.org/2000/svg" xmlns:svg="http://www.w3.org/2000/svg">
 <g class="layer">
  <path d="m82.66,43.13l-50.32,0l0,3.59l50.32,0l0,-3.59z" fill="#000" id="svg_1"/>
  <path d="m32.34,46.72l-7.18,0l0,3.59l7.18,0l0,-3.59z" fill="#000" id="svg_2"/>
  <path d="m53.91,46.72l-21.57,0l0,4.41l21.57,0l0,-4.41z" fill="#D22209" id="svg_3" transform="matrix(1 0 0 1 0 0)"/>
  <path d="m64.69,46.72l-10.78,0l0,3.59l10.78,0l0,-3.59z" fill="#F38B7C" id="svg_4" transform="matrix(1 0 0 1 0 0)"/>
  <path d="m82.66,46.72l-17.97,0l0,5.15l17.97,0l0,-5.15z" fill="#D22209" id="svg_5" transform="matrix(1 0 0 1 0 0)"/>
  <path d="m89.84,46.72l-7.18,0l0,3.59l7.18,0l0,-3.59z" fill="#000" id="svg_6"/>
  <path d="m25.16,50.31l-3.6,0l0,3.6l3.6,0l0,-3.6z" fill="#000" id="svg_7"/>
  <path d="m57.5,50.31l-32.34,0l0,3.6l32.34,0l0,-3.6z" fill="#D22209" id="svg_8"/>
  <path d="m61.09,49.94l-3.59,0l0,4.49l3.59,0l0,-4.49z" fill="#F38B7C" id="svg_9" transform="matrix(1 0 0 1 0 0)"/>
  <path d="m89.84,50.31l-28.75,0l0,3.6l28.75,0l0,-3.6z" fill="#D22209" id="svg_10" transform="matrix(1 0 0 1 0 0)"/>
  <path d="m93.44,50.31l-3.6,0l0,3.6l3.6,0l0,-3.6z" fill="#000" id="svg_11"/>
  <path d="m25.16,53.31l-3.6,0l0,4.19l3.6,0l0,-4.19z" fill="#000" id="svg_12" transform="matrix(1 0 0 1 0 0)"/>
  <path d="m57.5,53.46l-32.34,0l0,4.04l32.34,0l0,-4.04z" fill="#D22209" id="svg_13" transform="matrix(1 0 0 1 0 0)"/>
  <path d="m61.09,53.91l-3.59,0l0,3.59l3.59,0l0,-3.59z" fill="#F38B7C" id="svg_14"/>
  <path d="m89.91,53.31l-28.82,0l0,4.19l28.82,0l0,-4.19z" fill="#D22209" id="svg_15"/>
  <path d="m93.44,53.91l-3.6,0l0,3.59l3.6,0l0,-3.59z" fill="#000" id="svg_16"/>
  <path d="m21.56,57.5l-3.59,0l0,3.59l3.59,0l0,-3.59z" fill="#000" id="svg_17"/>
  <path d="m57.5,56.83l-35.94,0l0,4.26l35.94,0l0,-4.26z" fill="#D22209" id="svg_18" transform="matrix(1 0 0 1 0 0)"/>
  <path d="m61.09,57.5l-3.59,0l0,4.33l3.59,0l0,-4.33z" fill="#F38B7C" id="svg_19" transform="matrix(1 0 0 1 0 0)"/>
  <path d="m93.44,57.5l-32.35,0l0,3.59l32.35,0l0,-3.59z" fill="#D22209" id="svg_20" transform="matrix(1 0 0 1 0 0)"/>
  <path d="m97.03,57.5l-3.59,0l0,3.59l3.59,0l0,-3.59z" fill="#000" id="svg_21"/>
  <path d="m21.56,60.42l-3.59,0l0,4.27l3.59,0l0,-4.27z" fill="#000" id="svg_22" transform="matrix(1 0 0 1 0 0)"/>
  <path d="m57.5,60.57l-35.94,0l0,4.05l35.94,0l0,-4.05z" fill="#D22209" id="svg_23" transform="matrix(1 0 0 1 0 0)"/>
  <path d="m61.09,61.09l-3.59,0l0,4.34l3.59,0l0,-4.34z" fill="#F38B7C" id="svg_24" transform="matrix(1 0 0 1 0 0)"/>
  <path d="m93.44,59.38l-32.35,0l0,5.31l32.35,0l0,-5.31z" fill="#D22209" id="svg_25" transform="matrix(1 0 0 1 0 0)"/>
  <path d="m97.03,61.09l-3.59,0l0,3.6l3.59,0l0,-3.6z" fill="#000" id="svg_26"/>
  <path d="m21.56,64.24l-3.59,0l0,4.04l3.59,0l0,-4.04z" fill="#000" id="svg_27" transform="matrix(1 0 0 1 0 0)"/>
  <path d="m57.5,63.95l-35.94,0l0,4.33l35.94,0l0,-4.33z" fill="#D22209" id="svg_28" transform="matrix(1 0 0 1 0 0)"/>
  <path d="m61.09,64.69l-3.59,0l0,4.26l3.59,0l0,-4.26z" fill="#F38B7C" id="svg_29" transform="matrix(1 0 0 1 0 0)"/>
  <path d="m93.44,64.24l-32.35,0l0,4.04l32.35,0l0,-4.04z" fill="#D22209" id="svg_30" transform="matrix(1 0 0 1 0 0)"/>
  <path d="m97.03,64.69l-3.59,0l0,3.59l3.59,0l0,-3.59z" fill="#000" id="svg_31"/>
  <path d="m21.56,67.54l-3.59,0l0,4.34l3.59,0l0,-4.34z" fill="#000" id="svg_32" transform="matrix(1 0 0 1 0 0)"/>
  <path d="m57.5,67.39l-35.94,0l0,4.49l35.94,0l0,-4.49z" fill="#D22209" id="svg_33" transform="matrix(1 0 0 1 0 0)"/>
  <path d="m61.09,68.28l-3.59,0l0,4.27l3.59,0l0,-4.27z" fill="#F38B7C" id="svg_34" transform="matrix(1 0 0 1 0 0)"/>
  <path d="m93.44,67.54l-32.35,0l0,4.34l32.35,0l0,-4.34z" fill="#D22209" id="svg_35" transform="matrix(1 0 0 1 0 0)"/>
  <path d="m97.03,68.28l-3.59,0l0,3.6l3.59,0l0,-3.6z" fill="#000" id="svg_36"/>
  <path d="m21.56,71.51l-3.59,0l0,3.96l3.59,0l0,-3.96z" fill="#000" id="svg_37" transform="matrix(1 0 0 1 0 0)"/>
  <path d="m57.5,70.99l-35.94,0l0,4.48l35.94,0l0,-4.48z" fill="#D22209" id="svg_38" transform="matrix(1 0 0 1 0 0)"/>
  <path d="m61.09,71.88l-3.59,0l0,4.56l3.59,0l0,-4.56z" fill="#F38B7C" id="svg_39" transform="matrix(1 0 0 1 0 0)"/>
  <path d="m93.44,71.14l-32.35,0l0,4.41l32.35,0l0,-4.41z" fill="#D22209" id="svg_40" transform="matrix(1 0 0 1 0 0)"/>
  <path d="m97.03,71.88l-3.59,0l0,3.59l3.59,0l0,-3.59z" fill="#000" id="svg_41"/>
  <path d="m21.56,74.5l-3.59,0l0,5.3l3.59,0l0,-5.3z" fill="#000" id="svg_42"/>
  <path d="m25.16,75.47l-3.6,0l0,3.59l3.6,0l0,-3.59z" fill="#F38B7C" id="svg_43"/>
  <path d="m57.5,74.8l-32.34,0l0,4.33l32.34,0l0,-4.33z" fill="#D22209" id="svg_44"/>
  <path d="m63.09,75.47l-5.63,0l0,4.33l5.63,0l0,-4.33z" fill="#f38b7c" id="svg_45" transform="matrix(1 0 0 1 0 0)"/>
  <path d="m93.51,74.8l-32.35,0l0,4.26l32.35,0l0,-4.26z" fill="#D22209" id="svg_46" transform="matrix(1 0 0 1 0 0)"/>
  <path d="m97.03,75.47l-3.59,0l0,3.59l3.59,0l0,-3.59z" fill="#000" id="svg_47"/>
  <path d="m25.16,79.06l-7.19,0l0,3.6l7.19,0l0,-3.6z" fill="#000" id="svg_48"/>
  <path d="m32.34,79.06l-7.18,0l0,3.6l7.18,0l0,-3.6z" fill="#F38B7C" id="svg_49"/>
  <path d="m50.31,78.46l-17.97,0l0,4.2l17.97,0l0,-4.2z" fill="#D22209" id="svg_50" transform="matrix(1 0 0 1 0 0)"/>
  <path d="m61.09,79.06l-10.78,0l0,3.6l10.78,0l0,-3.6z" fill="#F38B7C" id="svg_51" transform="matrix(1 0 0 1 0 0)"/>
  <path d="m64.69,78.39l-3.6,0l0,4.27l3.6,0l0,-4.27z" fill="#D22209" id="svg_52" transform="matrix(1 0 0 1 0 0)"/>
  <path d="m75.47,79.06l-10.78,0l0,3.6l10.78,0l0,-3.6z" fill="#ffffff" id="svg_53"/>
  <path d="m93.44,78.24l-17.97,0l0,4.42l17.97,0l0,-4.42z" fill="#D22209" id="svg_54" transform="matrix(1 0 0 1 0 0)"/>
  <path d="m97.03,79.06l-3.59,0l0,3.6l3.59,0l0,-3.6z" fill="#000" id="svg_55"/>
  <path d="m32.34,82.66l-10.78,0l0,3.59l10.78,0l0,-3.59z" fill="#000" id="svg_56"/>
  <path d="m61.24,82.51l-36.12,0l0,3.74l36.12,0l0,-3.74z" fill="#f38b7c" id="svg_57"/>
  <path d="m64.69,81.84l-3.6,0l0,4.41l3.6,0l0,-4.41z" fill="#D22209" id="svg_58" transform="matrix(1 0 0 1 0 0)"/>
  <path d="m68.28,82.66l-3.59,0l0,3.59l3.59,0l0,-3.59z" fill="#ffffff" id="svg_59"/>
  <path d="m71.88,82.66l-3.6,0l0,3.59l3.6,0l0,-3.59z" fill="#F38B7C" id="svg_60"/>
  <path d="m75.47,82.66l-3.59,0l0,3.59l3.59,0l0,-3.59z" fill="#ffffff" id="svg_61"/>
  <path d="m89.84,82.06l-14.37,0l0,4.19l14.37,0l0,-4.19z" fill="#D22209" id="svg_62" transform="matrix(1 0 0 1 0 0)"/>
  <path d="m97.03,82.66l-7.19,0l0,3.59l7.19,0l0,-3.59z" fill="#000" id="svg_63"/>
  <path d="m53.91,86.25l-28.75,0l0,3.59l28.75,0l0,-3.59z" fill="#000" id="svg_64"/>
  <path d="m61.09,86.03l-7.18,0l0,3.81l7.18,0l0,-3.81z" fill="#F38B7C" id="svg_65" transform="matrix(1 0 0 1 0 0)"/>
  <path d="m64.69,85.36l-3.6,0l0,4.48l3.6,0l0,-4.48z" fill="#D22209" id="svg_66" transform="matrix(1 0 0 1 0 0)"/>
  <path d="m75.47,86.25l-10.78,0l0,3.59l10.78,0l0,-3.59z" fill="#ffffff" id="svg_67"/>
  <path d="m89.84,85.73l-14.37,0l0,4.11l14.37,0l0,-4.11z" fill="#D22209" id="svg_68" transform="matrix(1 0 0 1 0 0)"/>
  <path d="m93.44,86.25l-3.6,0l0,3.59l3.6,0l0,-3.59z" fill="#000" id="svg_69"/>
  <path d="m57.5,89.84l-25.16,0l0,3.6l25.16,0l0,-3.6z" fill="#000" id="svg_70" transform="matrix(1 0 0 1 0 0)"/>
  <path d="m64.69,89.84l-7.19,0l0,3.6l7.19,0l0,-3.6z" fill="#F38B7C" id="svg_71"/>
  <path d="m87.57,89.84l-22.88,0l0,3.6l22.88,0l0,-3.6z" fill="#D22209" id="svg_72" transform="matrix(1 0 0 1 0 0)"/>
  <path d="m93.44,89.84l-7.21,0l0,3.6l7.21,0l0,-3.6z" fill="#000" id="svg_73" transform="matrix(1 0 0 1 0 0)"/>
  <path d="m89.84,93.44l-35.93,0l0,3.59l35.93,0l0,-3.59z" fill="#000" id="svg_74"/>
  <path d="m82.66,96.58l-25.16,0l0,4.05l25.16,0l0,-4.05z" fill="#000" id="svg_75"/>
  <path d="m820.59,286.4l-17.97,0l0,3.6l17.97,0l0,-3.6z" fill="#D22209" id="svg_77" transform="matrix(1 0 0 1 0 0)"/>
  <path d="m54,86.03l-18.5,0l0,3.81l18.5,0l0,-3.81z" fill="#F38B7C" id="svg_79"/>
  <path d="m82.7,93.31l-25.21,0l0,3.6l25.21,0l0,-3.6z" fill="#F38B7C" id="svg_83"/>
 </g>
</svg>