<svg width="196" height="131" viewBox="0 0 196 131" fill="none" xmlns="http://www.w3.org/2000/svg">
<rect x="5.79047" y="125.331" width="184.108" height="5.41494" fill="black"/>
<rect x="189.905" y="38.6953" width="5.41494" height="86.6391" fill="black"/>
<rect x="0.378906" y="38.6953" width="5.41494" height="86.6391" fill="black"/>
<rect x="65.3582" y="38.6953" width="5.41494" height="86.6391" fill="black"/>
<rect x="5.79047" y="54.9351" width="108.299" height="5.41494" fill="black"/>
<rect x="114.093" y="44.1119" width="5.41494" height="27.0747" fill="black"/>
<rect x="146.582" y="44.1119" width="5.41494" height="27.0747" fill="black"/>
<rect x="119.509" y="38.6953" width="27.0747" height="5.41494" fill="black"/>
<rect x="130.337" y="49.5236" width="5.41494" height="16.2448" fill="black"/>
<rect x="124.921" y="49.5236" width="16.2448" height="5.41494" fill="black"/>
<rect x="119.509" y="71.1849" width="27.0747" height="5.41494" fill="black"/>
<rect x="146.582" y="54.9351" width="48.7345" height="5.41494" fill="black"/>
<rect x="184.489" y="27.8621" width="5.41494" height="10.8299" fill="black"/>
<rect x="168.244" y="27.8621" width="5.41494" height="10.8299" fill="black"/>
<rect x="173.655" y="38.6953" width="5.41494" height="10.8299" fill="black"/>
<rect x="146.582" y="44.1119" width="32.4896" height="5.41494" fill="black"/>
<rect x="179.072" y="17.0339" width="5.41494" height="10.8299" fill="black"/>
<rect x="162.827" y="17.0339" width="5.41494" height="10.8299" fill="black"/>
<rect x="173.655" y="11.6173" width="5.41494" height="5.41494" fill="black"/>
<rect x="168.244" y="6.20056" width="5.41494" height="5.41494" fill="black"/>
<rect x="22.0404" y="6.20056" width="5.41494" height="5.41494" fill="black"/>
<rect x="43.7018" y="6.20056" width="5.41494" height="5.41494" fill="black"/>
<rect x="59.9416" y="6.20056" width="5.41494" height="5.41494" fill="black"/>
<rect x="151.994" y="6.20056" width="5.41494" height="5.41494" fill="black"/>
<rect x="16.6237" y="11.6173" width="5.41494" height="5.41494" fill="black"/>
<rect x="49.1134" y="11.6173" width="5.41494" height="5.41494" fill="black"/>
<rect x="65.3582" y="11.6173" width="97.4689" height="5.41494" fill="black"/>
<rect x="11.2071" y="17.0339" width="5.41494" height="10.8299" fill="black"/>
<rect x="5.79047" y="27.8621" width="5.41494" height="10.8299" fill="black"/>
<rect x="59.9416" y="27.8621" width="5.41494" height="10.8299" fill="black"/>
<rect x="49.1134" y="38.6953" width="5.41494" height="10.8299" fill="black"/>
<rect x="11.2071" y="38.6953" width="5.41494" height="10.8299" fill="black"/>
<rect x="11.2071" y="44.1119" width="43.3195" height="5.41494" fill="black"/>
<rect x="16.6237" y="27.8621" width="32.4896" height="5.41494" fill="black"/>
<rect x="16.6237" y="27.8621" width="5.41494" height="10.8299" fill="black"/>
<rect x="22.0404" y="17.0339" width="5.41494" height="10.8299" fill="black"/>
<rect x="27.4519" y="11.6173" width="10.8299" height="5.41494" fill="black"/>
<rect x="43.7018" y="27.8621" width="5.41494" height="10.8299" fill="black"/>
<rect x="38.2852" y="17.0339" width="5.41494" height="10.8299" fill="black"/>
<rect x="76.1864" y="27.8621" width="5.41494" height="10.8299" fill="black"/>
<rect x="81.603" y="38.6953" width="5.41494" height="10.8299" fill="black"/>
<rect x="87.0197" y="44.1119" width="27.0747" height="5.41494" fill="black"/>
<rect x="81.603" y="65.7683" width="32.4896" height="5.41494" fill="black"/>
<rect x="81.603" y="82.0132" width="97.4689" height="5.41494" fill="black"/>
<rect x="81.603" y="98.2581" width="97.4689" height="5.41494" fill="black"/>
<rect x="81.603" y="114.503" width="97.4689" height="5.41494" fill="black"/>
<rect x="81.603" y="65.7683" width="5.41494" height="54.1494" fill="black"/>
<rect x="49.1134" y="65.7683" width="5.41494" height="54.1494" fill="black"/>
<rect x="16.6237" y="65.7683" width="5.41494" height="54.1494" fill="black"/>
<rect x="16.6237" y="65.7683" width="37.9046" height="5.41494" fill="black"/>
<rect x="16.6237" y="114.503" width="37.9046" height="5.41494" fill="black"/>
<rect x="16.6237" y="98.2581" width="37.9046" height="5.41494" fill="black"/>
<rect x="16.6237" y="82.0132" width="37.9046" height="5.41494" fill="black"/>
<rect x="173.655" y="65.7683" width="5.41494" height="54.1494" fill="black"/>
<rect x="151.994" y="65.7683" width="27.0747" height="5.41494" fill="black"/>
<rect x="81.603" y="27.8621" width="86.6391" height="5.41494" fill="black"/>
<rect x="54.5249" y="17.0339" width="5.41494" height="10.8299" fill="black"/>
<rect x="70.7748" y="17.0339" width="5.41494" height="10.8299" fill="black"/>
<rect x="27.4519" y="0.789062" width="140.788" height="5.41494" fill="black"/>
<rect x="27.4519" y="6.20056" width="16.2448" height="5.41494" fill="#FFE303"/>
<rect x="22.0404" y="11.6173" width="5.41494" height="5.41494" fill="#FFE303"/>
<rect x="16.6237" y="17.0339" width="5.41494" height="5.41494" fill="#FFE303"/>
<rect x="11.2071" y="27.8621" width="5.41494" height="5.41494" fill="#FFE303"/>
<rect x="5.79047" y="38.6953" width="5.41494" height="5.41494" fill="#FFE303"/>
<rect x="59.9416" y="38.6953" width="5.41494" height="5.41494" fill="#FFE303"/>
<rect x="54.5249" y="27.8621" width="5.41494" height="5.41494" fill="#FFE303"/>
<rect x="49.1134" y="17.0339" width="5.41494" height="5.41494" fill="#FFE303"/>
<rect x="43.7018" y="11.6173" width="5.41494" height="5.41494" fill="#FFE303"/>
<rect x="16.6237" y="22.4506" width="5.41494" height="5.41494" fill="#F4A716"/>
<rect x="11.2071" y="33.2787" width="5.41494" height="5.41494" fill="#F4A716"/>
<rect x="5.79047" y="44.1119" width="5.41494" height="5.41494" fill="#F4A716"/>
<rect x="54.5249" y="38.6953" width="5.41494" height="5.41494" fill="#F4A716"/>
<rect x="54.5249" y="33.2787" width="5.41494" height="5.41494" fill="#F4A716"/>
<rect x="49.1134" y="22.4506" width="5.41494" height="16.2448" fill="#F4A716"/>
<rect x="38.2852" y="11.6173" width="5.41494" height="5.41494" fill="#F4A716"/>
<rect x="27.4519" y="17.0339" width="5.41494" height="5.41494" fill="#5D2E1C"/>
<rect x="32.8686" y="17.0339" width="5.41494" height="5.41494" fill="#5D2E1C"/>
<rect x="32.8686" y="22.4506" width="5.41494" height="5.41494" fill="#834D29"/>
<rect x="22.0404" y="76.5966" width="5.41494" height="5.41494" fill="#834D29"/>
<rect x="43.7018" y="92.8464" width="5.41494" height="5.41494" fill="#834D29"/>
<rect x="32.8686" y="76.5966" width="16.2448" height="5.41494" fill="#834D29"/>
<rect x="22.0404" y="92.8464" width="16.2448" height="5.41494" fill="#834D29"/>
<rect x="27.4519" y="109.086" width="21.6598" height="5.41494" fill="#834D29"/>
<rect x="22.0404" y="87.4298" width="27.0747" height="5.41494" fill="#834D29"/>
<rect x="22.0404" y="103.67" width="27.0747" height="5.41494" fill="#834D29"/>
<rect x="22.0404" y="38.6953" width="27.0747" height="5.41494" fill="#834D29"/>
<rect x="27.4519" y="33.2787" width="16.2448" height="5.41494" fill="#834D29"/>
<rect x="27.4519" y="22.4506" width="5.41494" height="5.41494" fill="#5D2E1C"/>
<rect x="22.0404" y="33.2787" width="5.41494" height="5.41494" fill="#5D2E1C"/>
<rect x="16.6237" y="38.6953" width="5.41494" height="5.41494" fill="#5D2E1C"/>
<rect x="22.0404" y="71.1849" width="27.0747" height="5.41494" fill="#5D2E1C"/>
<rect x="27.4519" y="76.5966" width="5.41494" height="5.41494" fill="#5D2E1C"/>
<rect x="38.2852" y="92.8464" width="5.41494" height="5.41494" fill="#5D2E1C"/>
<rect x="22.0404" y="109.086" width="5.41494" height="5.41494" fill="#5D2E1C"/>
<rect x="43.7018" y="22.4506" width="5.41494" height="5.41494" fill="#F4A716"/>
<rect x="43.7018" y="17.0339" width="5.41494" height="5.41494" fill="#F4A716"/>
<rect x="54.5249" y="44.1119" width="10.8299" height="10.8299" fill="#F4A716"/>
<rect x="5.79047" y="49.5236" width="59.5644" height="5.41494" fill="#F4A716"/>
<rect x="49.1134" y="6.20056" width="10.8299" height="5.41494" fill="#FFE303"/>
<rect x="59.9416" y="17.0339" width="10.8299" height="5.41494" fill="#FFE303"/>
<rect x="168.244" y="17.0339" width="10.8299" height="5.41494" fill="#FFE303"/>
<rect x="173.655" y="22.4506" width="5.41494" height="5.41494" fill="#FFE303"/>
<rect x="179.072" y="27.8621" width="5.41494" height="10.8299" fill="#FFE303"/>
<rect x="184.489" y="38.6953" width="5.41494" height="5.41494" fill="#FFE303"/>
<rect x="76.1864" y="38.6953" width="5.41494" height="5.41494" fill="#FFE303"/>
<rect x="70.7748" y="27.8621" width="5.41494" height="5.41494" fill="#FFE303"/>
<rect x="65.3582" y="22.4506" width="5.41494" height="5.41494" fill="#FFE303"/>
<rect x="54.5249" y="11.6173" width="10.8299" height="5.41494" fill="white"/>
<rect x="162.827" y="11.6173" width="10.8299" height="5.41494" fill="white"/>
<rect x="157.411" y="6.20056" width="10.8299" height="5.41494" fill="#FFE303"/>
<rect x="54.5249" y="65.7683" width="10.8299" height="54.1494" fill="#F0A815"/>
<rect x="5.79047" y="65.7683" width="10.8299" height="54.1494" fill="#F0A815"/>
<rect x="5.79047" y="60.3517" width="59.5644" height="5.41494" fill="#D68917"/>
<rect x="5.79047" y="119.919" width="59.5644" height="5.41494" fill="#D68917"/>
<rect x="70.7748" y="119.919" width="119.129" height="5.41494" fill="#EFA91E"/>
<rect x="70.7748" y="82.0132" width="10.8299" height="37.9046" fill="#FFCA0C"/>
<rect x="179.072" y="82.0132" width="10.8299" height="37.9046" fill="#FFCA0A"/>
<rect width="10.8299" height="16.2448" transform="matrix(1 0 0 -1 70.7748 76.5966)" fill="#F0A815"/>
<rect width="43.3195" height="5.41494" transform="matrix(1 0 0 -1 70.7748 65.7683)" fill="#F0A815"/>
<rect width="37.9046" height="5.41494" transform="matrix(1 0 0 -1 151.994 65.7683)" fill="#F0A815"/>
<rect width="10.8299" height="10.8299" transform="matrix(1 0 0 -1 179.072 76.5966)" fill="#FFCB0A"/>
<rect width="10.8299" height="5.41494" transform="matrix(1 0 0 -1 70.7748 82.0132)" fill="#FEE610"/>
<rect width="27.0747" height="5.41494" transform="matrix(1 0 0 -1 87.0197 76.5966)" fill="#5D2E1C"/>
<rect width="32.4896" height="5.41494" transform="matrix(1 0 0 -1 87.0197 82.0132)" fill="#804E2A"/>
<rect width="27.0747" height="5.41494" transform="matrix(1 0 0 -1 119.509 82.0132)" fill="#5E2D1F"/>
<rect width="21.6598" height="5.41494" transform="matrix(1 0 0 -1 146.582 82.0132)" fill="#7F4D2A"/>
<rect width="5.41494" height="5.41494" transform="matrix(1 0 0 -1 114.093 76.5966)" fill="#451F16"/>
<rect width="5.41494" height="5.41494" transform="matrix(1 0 0 -1 146.582 76.5966)" fill="#451F16"/>
<rect width="21.6598" height="5.41494" transform="matrix(1 0 0 -1 151.994 76.5966)" fill="#5D2E1C"/>
<rect width="5.41494" height="10.8299" transform="matrix(1 0 0 -1 168.244 82.0132)" fill="#5D2E1C"/>
<rect width="5.41494" height="5.41494" transform="matrix(1 0 0 -1 103.259 92.8464)" fill="#5D2E1C"/>
<rect width="5.41494" height="5.41494" transform="matrix(1 0 0 -1 151.994 38.6953)" fill="#5D2E1C"/>
<rect width="5.41494" height="5.41494" transform="matrix(1 0 0 -1 92.4363 27.8621)" fill="#5D2E1C"/>
<rect width="5.41494" height="5.41494" transform="matrix(1 0 0 -1 135.754 22.4506)" fill="#5D2E1C"/>
<rect width="5.41494" height="5.41494" transform="matrix(1 0 0 -1 130.337 98.2581)" fill="#5D2E1C"/>
<rect width="5.41494" height="5.41494" transform="matrix(1 0 0 -1 157.411 109.086)" fill="#5D2E1C"/>
<rect width="5.41494" height="5.41494" transform="matrix(1 0 0 -1 162.827 109.086)" fill="#5D2E1C"/>
<rect width="5.41494" height="5.41494" transform="matrix(1 0 0 -1 87.0197 114.503)" fill="#5D2E1C"/>
<rect width="5.41494" height="10.8299" transform="matrix(1 0 0 -1 168.244 114.503)" fill="#5D2E1C"/>
<rect width="5.41494" height="10.8299" transform="matrix(1 0 0 -1 168.244 98.2581)" fill="#5D2E1C"/>
<rect width="10.8299" height="5.41494" transform="matrix(1 0 0 -1 179.072 82.0132)" fill="#FFE301"/>
<rect x="87.0197" y="87.4298" width="16.2448" height="5.41494" fill="#824C28"/>
<rect x="108.676" y="87.4298" width="59.5644" height="5.41494" fill="#824C28"/>
<rect x="87.0197" y="92.8464" width="43.3195" height="5.41494" fill="#824C28"/>
<rect x="135.754" y="92.8464" width="32.4896" height="5.41494" fill="#824C28"/>
<rect width="70.3942" height="5.41494" transform="matrix(1 0 0 -1 87.0197 109.086)" fill="#824C28"/>
<rect width="75.8092" height="5.41494" transform="matrix(1 0 0 -1 92.4363 114.503)" fill="#824C28"/>
<rect x="70.7748" y="49.5236" width="43.3195" height="5.41494" fill="#FCC80F"/>
<rect x="70.7748" y="44.1119" width="10.8299" height="5.41494" fill="#FCC80F"/>
<rect x="70.7748" y="38.6953" width="5.41494" height="5.41494" fill="#FCC80F"/>
<rect x="65.3582" y="33.2787" width="10.8299" height="5.41494" fill="#FCC80F"/>
<rect x="65.3582" y="27.8621" width="5.41494" height="5.41494" fill="#FCC80F"/>
<rect x="59.9416" y="22.4506" width="5.41494" height="5.41494" fill="#FCC80F"/>
<rect x="151.994" y="49.5236" width="37.9046" height="5.41494" fill="#FCC80F"/>
<rect x="184.489" y="44.1119" width="5.41494" height="5.41494" fill="#FCC80F"/>
<rect x="179.072" y="38.6953" width="5.41494" height="10.8299" fill="#FCC80F"/>
<rect x="173.655" y="27.8621" width="5.41494" height="10.8299" fill="#FCC80F"/>
<rect x="168.244" y="22.4506" width="5.41494" height="5.41494" fill="#FCC80F"/>
<rect x="81.603" y="33.2787" width="70.3942" height="5.41494" fill="#834D29"/>
<rect x="87.0197" y="38.6953" width="32.4896" height="5.41494" fill="#834D29"/>
<rect x="157.411" y="33.2787" width="10.8299" height="5.41494" fill="#834D29"/>
<rect x="146.582" y="38.6953" width="27.0747" height="5.41494" fill="#834D29"/>
<rect x="76.1864" y="17.0339" width="59.5644" height="5.41494" fill="#834D29"/>
<rect x="76.1864" y="22.4506" width="16.2448" height="5.41494" fill="#834D29"/>
<rect x="97.8478" y="22.4506" width="64.9793" height="5.41494" fill="#834D29"/>
<rect x="141.171" y="17.0339" width="21.6598" height="5.41494" fill="#834D29"/>
<rect x="65.3582" y="6.20056" width="86.6391" height="5.41494" fill="#834D29"/>
<rect x="119.509" y="44.1119" width="27.0747" height="5.41494" fill="#FEE401"/>
<rect x="119.509" y="65.7683" width="27.0747" height="5.41494" fill="#F1A917"/>
<rect x="119.509" y="49.5236" width="5.41494" height="16.2448" fill="#FFCB07"/>
<rect x="124.921" y="54.9351" width="5.41494" height="5.41494" fill="#F0A513"/>
<rect x="124.921" y="60.3517" width="5.41494" height="5.41494" fill="#FFCB07"/>
<rect x="135.754" y="54.9351" width="5.41494" height="5.41494" fill="#F0A513"/>
<rect x="135.754" y="60.3517" width="5.41494" height="5.41494" fill="#FFCB07"/>
<rect x="141.171" y="49.5236" width="5.41494" height="16.2448" fill="#FFCB07"/>
</svg>
