<svg width="116" height="115" viewBox="0 0 116 115" fill="none" xmlns="http://www.w3.org/2000/svg">
    <path d="M69.0312 7.1875H65.4375V10.7812H69.0312V7.1875Z" fill="#552E05"/>
    <path d="M69.0312 10.7812H65.4375V14.375H69.0312V10.7812Z" fill="#552E05"/>
    <path d="M90.5938 10.7812H87V14.375H90.5938V10.7812Z" fill="#552E05"/>
    <path d="M65.4375 14.375H61.8438V17.9688H65.4375V14.375Z" fill="#552E05"/>
    <path d="M87 14.375H79.8125V17.9688H87V14.375Z" fill="#552E05"/>
    <path d="M29.5 17.9688H25.9062V21.5625H29.5V17.9688Z" fill="#049D43"/>
    <path d="M36.6875 17.9688H33.0938V21.5625H36.6875V17.9688Z" fill="#049D43"/>
    <path d="M43.875 17.9688H40.2812V21.5625H43.875V17.9688Z" fill="#049D43"/>
    <path d="M65.4375 17.9688H61.8438V21.5625H65.4375V17.9688Z" fill="#552E05"/>
    <path d="M79.8125 17.9688H72.625V21.5625H79.8125V17.9688Z" fill="#552E05"/>
    <path d="M25.9062 21.5625H22.3125V25.1562H25.9062V21.5625Z" fill="#049D43"/>
    <path d="M29.5 21.5625H25.9062V25.1562H29.5V21.5625Z" fill="#0B5027"/>
    <path d="M33.0938 21.5625H29.5V25.1562H33.0938V21.5625Z" fill="#049D43"/>
    <path d="M36.6875 21.5625H33.0938V25.1562H36.6875V21.5625Z" fill="#0B5027"/>
    <path d="M40.2812 21.5625H36.6875V25.1562H40.2812V21.5625Z" fill="#049D43"/>
    <path d="M43.875 21.5625H40.2812V25.1562H43.875V21.5625Z" fill="#0B5027"/>
    <path d="M47.4688 21.5625H43.875V25.1562H47.4688V21.5625Z" fill="#049D43"/>
    <path d="M61.8438 21.5625H54.6562V25.1562H61.8438V21.5625Z" fill="#A86F60"/>
    <path d="M72.625 21.5625H61.8438V25.1562H72.625V21.5625Z" fill="#F8DDB0"/>
    <path d="M83.4062 21.5625H72.625V25.1562H83.4062V21.5625Z" fill="#FD8B5B"/>
    <path d="M22.3125 25.1562H18.7188V28.75H22.3125V25.1562Z" fill="#049D43"/>
    <path d="M25.9062 25.1562H22.3125V28.75H25.9062V25.1562Z" fill="#0B5027"/>
    <path d="M29.5 25.1562H25.9062V28.75H29.5V25.1562Z" fill="#049D43"/>
    <path d="M36.6875 25.1562H29.5V28.75H36.6875V25.1562Z" fill="#0B5027"/>
    <path d="M47.4688 25.1562H36.6875V28.75H47.4688V25.1562Z" fill="#FD8B5B"/>
    <path d="M58.25 25.1562H47.4688V28.75H58.25V25.1562Z" fill="#A86F60"/>
    <path d="M79.8125 25.1562H58.25V28.75H79.8125V25.1562Z" fill="#F8DDB0"/>
    <path d="M87 25.1562H79.8125V28.75H87V25.1562Z" fill="#FD8B5B"/>
    <path d="M18.7188 28.75H15.125V32.3438H18.7188V28.75Z" fill="#049D43"/>
    <path d="M22.3125 28.75H18.7188V32.3438H22.3125V28.75Z" fill="#0B5027"/>
    <path d="M25.9062 28.75H22.3125V32.3438H25.9062V28.75Z" fill="#049D43"/>
    <path d="M33.0938 28.75H25.9062V32.3438H33.0938V28.75Z" fill="#0B5027"/>
    <path d="M40.2812 28.75H33.0938V32.3438H40.2812V28.75Z" fill="#FD8B5B"/>
    <path d="M54.6562 28.75H40.2812V32.3438H54.6562V28.75Z" fill="#E9265C"/>
    <path d="M65.4375 28.75H54.6562V32.3438H65.4375V28.75Z" fill="#F8DDB0"/>
    <path d="M76.2188 28.75H65.4375V32.3438H76.2188V28.75Z" fill="#FFA21E"/>
    <path d="M83.4062 28.75H76.2188V32.3438H83.4062V28.75Z" fill="#F8DDB0"/>
    <path d="M87 28.75H83.4062V32.3438H87V28.75Z" fill="#FD8B5B"/>
    <path d="M94.1875 28.75H87V32.3438H94.1875V28.75Z" fill="#A86F60"/>
    <path d="M18.7188 32.3438H15.125V35.9375H18.7188V32.3438Z" fill="#049D43"/>
    <path d="M22.3125 32.3438H18.7188V35.9375H22.3125V32.3438Z" fill="#0B5027"/>
    <path d="M25.9062 32.3438H22.3125V35.9375H25.9062V32.3438Z" fill="#049D43"/>
    <path d="M29.5 32.3438H25.9062V35.9375H29.5V32.3438Z" fill="#0B5027"/>
    <path d="M36.6875 32.3438H29.5V35.9375H36.6875V32.3438Z" fill="#FD8B5B"/>
    <path d="M58.25 32.3438H36.6875V35.9375H58.25V32.3438Z" fill="#E9265C"/>
    <path d="M61.8438 32.3438H58.25V35.9375H61.8438V32.3438Z" fill="#F8DDB0"/>
    <path d="M65.4375 32.3438H61.8438V35.9375H65.4375V32.3438Z" fill="#FFA21E"/>
    <path d="M76.2188 32.3438H65.4375V35.9375H76.2188V32.3438Z" fill="#FFC925"/>
    <path d="M79.8125 32.3438H76.2188V35.9375H79.8125V32.3438Z" fill="#FFA21E"/>
    <path d="M83.4062 32.3438H79.8125V35.9375H83.4062V32.3438Z" fill="#F8DDB0"/>
    <path d="M87 32.3438H83.4062V35.9375H87V32.3438Z" fill="#FD8B5B"/>
    <path d="M97.7812 32.3438H87V35.9375H97.7812V32.3438Z" fill="#A86F60"/>
    <path d="M108.562 35.9375H7.9375V39.5312H108.562V35.9375Z" fill="#999999"/>
    <path d="M104.969 39.5312H11.5312V43.125H104.969V39.5312Z" fill="#999999"/>
    <path d="M104.969 43.125H11.5312V46.7188H104.969V43.125Z" fill="#B92B3C"/>
    <path d="M101.375 46.7188H15.125V50.3125H101.375V46.7188Z" fill="#B92B3C"/>
    <path d="M101.375 50.3125H15.125V53.9062H101.375V50.3125Z" fill="#999999"/>
    <path d="M97.7812 53.9062H18.7188V57.5H97.7812V53.9062Z" fill="#B92B3C"/>
    <path d="M97.7812 57.5H18.7188V61.0938H97.7812V57.5Z" fill="#999999"/>
    <path d="M94.1875 61.0938H22.3125V64.6875H94.1875V61.0938Z" fill="#999999"/>
    <path d="M51.0625 64.6875H25.9062V68.2812H51.0625V64.6875Z" fill="#999999"/>
    <path d="M76.2188 64.6875H51.0625V68.2812H76.2188V64.6875Z" fill="#B92B3C"/>
    <path d="M90.5938 64.6875H76.2188V68.2812H90.5938V64.6875Z" fill="#999999"/>
    <path d="M87 68.2812H29.5V71.875H87V68.2812Z" fill="#999999"/>
    <path d="M79.8125 71.875H36.6875V75.4688H79.8125V71.875Z" fill="#999999"/>
</svg>
